<svg width="130" height="53" viewBox="0 0 130 53" fill="none" xmlns="http://www.w3.org/2000/svg">
<g clip-path="url(#clip0_15822_350)">
<path d="M130 0.120117H0V52.1201H130V0.120117Z" fill="#EC1D24"/>
<path d="M126.222 40.1791V48.0851H111.58V4.12012H119.465V40.1791H126.222ZM63.658 25.6791C63.048 25.9731 62.41 26.1191 61.788 26.1211V11.9811H61.828C62.45 11.9761 67.092 12.1651 67.092 18.9741C67.092 22.5331 65.512 24.7781 63.658 25.6791ZM40.55 34.3601L42.733 15.5611L44.998 34.3601H40.55ZM110.205 12.1451V4.12712H87.879L84.204 30.9061L80.574 4.12612H72.522L73.423 11.2761C72.495 9.44412 69.199 4.12612 61.943 4.12612C61.896 4.12412 53.883 4.12612 53.883 4.12612L53.852 43.1581L47.984 4.12712L37.439 4.12212L31.367 44.5621L31.369 4.12712H21.278L17.64 26.8441L14.096 4.12612H4V48.0921H11.95V26.9001L15.568 48.0921H19.794L23.359 26.9001V48.0921H38.686L39.614 41.3301H45.784L46.711 48.0921L61.758 48.1001H61.768V48.0921H61.788V33.8221L63.633 33.5521L67.45 48.1021H75.234L75.232 48.0921H75.254L70.243 31.0441C72.781 29.1641 75.649 24.4001 74.886 19.8411V19.8391C74.894 19.8971 79.615 48.1201 79.615 48.1201L88.871 48.0931L95.198 8.24312V48.0931H110.205V40.1851H103.081V30.1051H110.205V22.0751H103.081V12.1441L110.205 12.1451Z" fill="#FEFEFE"/>
<path d="M0 0.120117H30V52.1201H0V0.120117Z" fill="#EC1D24"/>
<path d="M31.5 48.1201V4.12012H21.291L17.651 26.8551L14.102 4.12012H4V48.1201H12V26.9121L15.577 48.1201H19.806L23.374 26.9121V48.1201H31.5Z" fill="#FEFEFE"/>
</g>
<defs>
<clipPath id="clip0_15822_350">
<rect width="130" height="52" fill="white" transform="translate(0 0.120117)"/>
</clipPath>
</defs>
</svg>
